<svg xmlns="http://www.w3.org/2000/svg" width="275.683" height="288.937" viewBox="0 0 275.683 288.937">
  <path id="Subtraction_1" data-name="Subtraction 1" d="M-1843.041,333a148.266,148.266,0,0,1-29.617-2.981,146.385,146.385,0,0,1-27.586-8.55,147.049,147.049,0,0,1-24.963-13.529,147.973,147.973,0,0,1-21.75-17.918,147.846,147.846,0,0,1-17.945-21.717,146.667,146.667,0,0,1-13.55-24.925,145.826,145.826,0,0,1-8.563-27.544A147.593,147.593,0,0,1-1990,186.265a146.184,146.184,0,0,1,8.338-48.842,146.1,146.1,0,0,1,23.11-41.881,147.339,147.339,0,0,1,35.027-32.07,146.054,146.054,0,0,1,44.089-19.409A138.562,138.562,0,0,0-1893,63.275a137.456,137.456,0,0,0-10.169,21.435,137.146,137.146,0,0,0-8.6,47.994,138.638,138.638,0,0,0,2.8,27.773,136.99,136.99,0,0,0,8.042,25.868,137.779,137.779,0,0,0,12.725,23.409,138.827,138.827,0,0,0,16.853,20.4,138.956,138.956,0,0,0,20.426,16.828,138.1,138.1,0,0,0,23.444,12.706,137.481,137.481,0,0,0,25.908,8.03,139.25,139.25,0,0,0,27.816,2.8,139,139,0,0,0,30.948-3.478,137.417,137.417,0,0,0,28.488-9.919,147.577,147.577,0,0,1-52.964,54.908,146.335,146.335,0,0,1-35.784,15.482A147.441,147.441,0,0,1-1843.041,333Z" transform="translate(1990 -44.063)" fill="#fff"/>
</svg>
